<svg width="1000" height="400" viewBox="0 0 1000 400" fill="none" xmlns="http://www.w3.org/2000/svg">
<path fill-rule="evenodd" clip-rule="evenodd" d="M520.878 161.775C540.726 141.927 540.726 109.747 520.878 89.8987L510.979 80L446.886 144.093C427.038 163.941 427.038 196.121 446.886 215.969L456.785 225.867L481.108 201.544L474.407 194.843C464.275 184.711 464.275 168.284 474.407 158.152L478.856 153.703L503.902 178.75L520.878 161.775ZM498.663 219.1L521.3 241.737L525.749 237.288C535.881 227.156 535.881 210.729 525.749 200.597L521.458 196.305L544.2 173.563L554.098 183.462C573.946 203.31 573.946 235.49 554.098 255.338L490.006 319.431L480.107 309.532C460.259 289.684 460.259 257.504 480.107 237.656L498.663 219.1Z" fill="url(#paint0_linear_1_19)"/>
<defs>
<linearGradient id="paint0_linear_1_19" x1="511.782" y1="80" x2="489.893" y2="332.38" gradientUnits="userSpaceOnUse">
<stop stop-color="#D3EAFF"/>
<stop offset="0.166667" stop-color="#65B4FF"/>
<stop offset="0.635417" stop-color="#FF000F"/>
<stop offset="1" stop-color="#FF9901"/>
</linearGradient>
</defs>
</svg>
