<svg width="1000" height="400" viewBox="0 0 1000 400" fill="none" xmlns="http://www.w3.org/2000/svg">
    <path fill-rule="evenodd" clip-rule="evenodd" d="M448.395 228C450.182 224.906 450.182 221.094 448.395 218V218C444.546 211.333 434.924 211.333 431.075 218L395.856 279C389.698 289.666 397.396 303 409.713 303L438.281 303C442.748 303 446.876 300.616 449.111 296.749V296.749C453.926 288.418 465.956 288.415 470.767 296.748L471.489 298C473.276 301.094 476.577 303 480.15 303V303C487.848 303 492.659 294.667 488.81 288L473.799 262C467.64 251.333 452.244 251.333 446.086 262L436.126 279.25C434.787 281.57 432.311 283 429.631 283V283C423.858 283 420.249 276.75 423.136 271.75L448.395 228Z" fill="black" />
    <path d="M552.497 298C554.283 301.094 557.584 303 561.157 303V303C568.855 303 573.666 294.667 569.817 288L494.04 156.75C492.7 154.429 492.7 151.57 494.04 149.25V149.25C496.927 144.25 504.144 144.25 507.03 149.25L592.911 298C594.698 301.094 597.999 303 601.571 303V303C609.269 303 614.081 294.667 610.232 288L514.392 122C508.233 111.333 492.837 111.333 486.679 122L473.4 145C470.542 149.95 470.542 156.049 473.4 161L552.497 298Z" fill="black" />
    <path d="M451.488 193.047C449.701 189.953 449.674 186.094 451.46 183V183C455.309 176.333 465.014 176.476 468.863 183.142V183.142C470.649 186.236 470.677 190.096 468.891 193.19V193.19C465.041 199.856 455.337 199.714 451.488 193.047V193.047Z" fill="black" />
    <path d="M471.777 218.19C469.991 221.284 469.991 225.096 471.777 228.19L512.082 298C513.869 301.094 517.17 303 520.742 303V303C528.44 303 533.252 294.667 529.403 288L489.098 218.19C485.249 211.523 475.626 211.523 471.777 218.19V218.19Z" fill="black" />
</svg>
